<svg width="136" height="136" viewBox="0 0 136 136" fill="none" xmlns="http://www.w3.org/2000/svg">
<rect x="4" y="4" width="128" height="128" rx="64" fill="black"/>
<rect x="4" y="4" width="128" height="128" rx="64" stroke="black" stroke-width="8"/>
<path d="M68.0096 38.4891C77.6289 38.4891 78.7581 38.532 82.5601 38.7035C86.0763 38.8608 87.9773 39.4468 89.2494 39.9471C90.936 40.6046 92.1366 41.3764 93.3944 42.6342C94.6523 43.892 95.4384 45.0926 96.0816 46.7792C96.5676 48.0513 97.1679 49.9524 97.3251 53.4685C97.4966 57.2705 97.5395 58.3997 97.5395 68.0191C97.5395 77.6384 97.4966 78.7676 97.3251 82.5696C97.1679 86.0857 96.5818 87.9868 96.0816 89.2589C95.4241 90.9455 94.6523 92.1461 93.3944 93.4039C92.1366 94.6617 90.936 95.4478 89.2494 96.091C87.9773 96.577 86.0763 97.1773 82.5601 97.3346C78.7581 97.5061 77.6289 97.549 68.0096 97.549C58.3902 97.549 57.261 97.5061 53.459 97.3346C49.9429 97.1773 48.0418 96.5913 46.7697 96.091C45.0831 95.4336 43.8825 94.6617 42.6247 93.4039C41.3669 92.1461 40.5808 90.9455 39.9376 89.2589C39.4516 87.9868 38.8513 86.0857 38.694 82.5696C38.5225 78.7676 38.4796 77.6384 38.4796 68.0191C38.4796 58.3997 38.5225 57.2705 38.694 53.4685C38.8513 49.9524 39.4373 48.0513 39.9376 46.7792C40.595 45.0926 41.3669 43.892 42.6247 42.6342C43.8825 41.3764 45.0831 40.5903 46.7697 39.9471C48.0418 39.4611 49.9429 38.8608 53.459 38.7035C57.261 38.5177 58.4045 38.4891 68.0096 38.4891ZM68.0096 32C58.233 32 57.0037 32.0429 53.1588 32.2144C49.3282 32.3859 46.7126 33.0005 44.4256 33.8867C42.053 34.8015 40.0519 36.045 38.0508 38.0461C36.0498 40.0471 34.8206 42.0625 33.8915 44.4209C33.0053 46.7078 32.3907 49.3235 32.2192 53.1683C32.0477 56.9989 32.0048 58.2282 32.0048 68.0048C32.0048 77.7814 32.0477 79.0106 32.2192 82.8555C32.3907 86.6861 33.0053 89.3017 33.8915 91.603C34.8063 93.9756 36.0498 95.9767 38.0508 97.9778C40.0519 99.9788 42.0673 101.208 44.4256 102.137C46.7126 103.023 49.3282 103.638 53.1731 103.809C57.018 103.981 58.233 104.024 68.0239 104.024C77.8148 104.024 79.0297 103.981 82.8746 103.809C86.7052 103.638 89.3209 103.023 91.6221 102.137C93.9948 101.222 95.9958 99.9788 97.9969 97.9778C99.9979 95.9767 101.227 93.9613 102.156 91.603C103.042 89.316 103.657 86.7004 103.829 82.8555C104 79.0106 104.043 77.7957 104.043 68.0048C104.043 58.2139 104 56.9989 103.829 53.154C103.657 49.3234 103.042 46.7078 102.156 44.4066C101.241 42.0339 99.9979 40.0328 97.9969 38.0318C95.9958 36.0307 93.9805 34.8015 91.6221 33.8724C89.3352 32.9862 86.7195 32.3716 82.8746 32.2001C79.0154 32.0429 77.7862 32 68.0096 32Z" fill="white"/>
<path d="M68.0095 49.5235C57.8041 49.5235 49.514 57.7993 49.514 68.019C49.514 78.2387 57.7898 86.5145 68.0095 86.5145C78.2292 86.5145 86.505 78.2387 86.505 68.019C86.505 57.7993 78.2292 49.5235 68.0095 49.5235ZM68.0095 80.0111C61.3774 80.0111 56.0032 74.6368 56.0032 68.0047C56.0032 61.3727 61.3774 55.9984 68.0095 55.9984C74.6416 55.9984 80.0159 61.3727 80.0159 68.0047C80.0159 74.6368 74.6416 80.0111 68.0095 80.0111Z" fill="white"/>
<path d="M87.234 53.0969C89.618 53.0969 91.5506 51.1643 91.5506 48.7803C91.5506 46.3963 89.618 44.4637 87.234 44.4637C84.85 44.4637 82.9174 46.3963 82.9174 48.7803C82.9174 51.1643 84.85 53.0969 87.234 53.0969Z" fill="white"/>
</svg>
