<svg width="136" height="136" viewBox="0 0 136 136" fill="none" xmlns="http://www.w3.org/2000/svg">
<rect x="4" y="4" width="128" height="128" rx="64" fill="url(#paint0_linear_18_1050)"/>
<rect x="4" y="4" width="128" height="128" rx="64" stroke="black" stroke-width="8"/>
<path fill-rule="evenodd" clip-rule="evenodd" d="M35.1603 67.3667C52.6515 59.7461 64.3151 54.7221 70.151 52.2948C86.8136 45.3642 90.276 44.1603 92.5327 44.1205C93.029 44.1118 94.1388 44.2348 94.8577 44.8181C95.4647 45.3107 95.6317 45.976 95.7116 46.443C95.7916 46.91 95.8911 47.9738 95.812 48.805C94.909 58.2924 91.0019 81.3158 89.0142 91.9419C88.1732 96.4382 86.5171 97.9458 84.9138 98.0933C81.4295 98.4139 78.7837 95.7906 75.4089 93.5784C70.1282 90.1168 67.1448 87.962 62.0189 84.5841C56.0951 80.6803 59.9353 78.5348 63.3113 75.0283C64.1948 74.1107 79.5467 60.1469 79.8439 58.8801C79.881 58.7217 79.9155 58.1312 79.5647 57.8194C79.2139 57.5075 78.6961 57.6142 78.3224 57.699C77.7928 57.8192 69.3567 63.3951 53.0141 74.4268C50.6195 76.0711 48.4506 76.8723 46.5073 76.8303C44.365 76.784 40.244 75.619 37.1805 74.6232C33.423 73.4017 30.4366 72.756 30.6967 70.6816C30.8321 69.6012 32.32 68.4962 35.1603 67.3667Z" fill="white"/>
<defs>
<linearGradient id="paint0_linear_18_1050" x1="68" y1="8" x2="68" y2="127.11" gradientUnits="userSpaceOnUse">
<stop offset="0.1"/>
</linearGradient>
</defs>
</svg>
